<svg width="21" height="18" viewBox="0 0 21 18" fill="none" xmlns="http://www.w3.org/2000/svg">
<path d="M17.7073 0.649973L17.5292 0.464818C17.4293 0.361005 17.2788 0.33085 17.149 0.388599L11.2569 3.01313C11.1165 3.07564 11.0321 3.22664 11.0495 3.38451C11.0575 3.45444 11.0618 3.52477 11.0623 3.5952C11.0619 4.58798 10.2876 5.39246 9.33303 5.39201C8.81958 5.39178 8.3328 5.15414 8.00461 4.74352C7.90677 4.62141 7.74339 4.58061 7.60291 4.64321L0.212258 7.93753H0.209838C0.171293 7.95465 0.136161 7.97906 0.106129 8.00944C0.0978321 8.0195 0.0900972 8.03006 0.0829672 8.04107C0.0638674 8.06359 0.0477061 8.08862 0.0349154 8.11549C0.0291249 8.13019 0.0243716 8.14534 0.0207418 8.1608C0.012013 8.18789 0.00656824 8.21607 0.00449406 8.24456C0.00449406 8.25247 0 8.2593 0 8.26721V17.6166C0 17.8152 0.154786 17.9762 0.345697 17.9762H2.41988C2.61079 17.9762 2.76557 17.8152 2.76557 17.6166C2.76557 16.6239 3.53946 15.819 4.49406 15.819C5.44865 15.819 6.22254 16.6239 6.22254 17.6166C6.22254 17.8152 6.37732 17.9762 6.56824 17.9762H20.3961C20.587 17.9762 20.7418 17.8152 20.7418 17.6166V8.26901C20.7494 5.40976 19.6567 2.66619 17.7073 0.649973ZM7.65165 5.4036C8.61238 6.36978 10.1443 6.34304 11.0734 5.34388C11.5096 4.87474 11.7535 4.24778 11.7537 3.5952V3.57542L17.2057 1.1454L17.2185 1.15834C18.953 2.95214 19.9637 5.36689 20.0442 7.90949H2.02993L7.65165 5.4036ZM20.0504 17.2571H6.88939C6.69951 15.8813 5.4732 14.9261 4.15026 15.1235C3.08681 15.2823 2.25135 16.1512 2.09872 17.2571H0.691393V8.62854H20.0504V17.2571Z" fill="#2196F3"/>
<path d="M3.1113 9.70703C2.34761 9.70703 1.72852 10.3509 1.72852 11.1451C1.72852 11.9394 2.34761 12.5832 3.1113 12.5832C3.87499 12.5832 4.49409 11.9394 4.49409 11.1451C4.49409 10.3509 3.87499 9.70703 3.1113 9.70703ZM3.1113 11.8642C2.72944 11.8642 2.41991 11.5423 2.41991 11.1451C2.41991 10.748 2.72944 10.4261 3.1113 10.4261C3.49317 10.4261 3.8027 10.748 3.8027 11.1451C3.8027 11.5423 3.49317 11.8642 3.1113 11.8642Z" fill="#2196F3"/>
<path d="M13.8281 13.6619C13.0644 13.6619 12.4453 14.3057 12.4453 15.1C12.4453 15.8942 13.0644 16.5381 13.8281 16.5381C14.5918 16.5381 15.2109 15.8942 15.2109 15.1C15.2109 14.3057 14.5918 13.6619 13.8281 13.6619ZM13.8281 15.819C13.4462 15.819 13.1367 15.4971 13.1367 15.1C13.1367 14.7028 13.4462 14.3809 13.8281 14.3809C14.21 14.3809 14.5195 14.7028 14.5195 15.1C14.5195 15.4971 14.21 15.819 13.8281 15.819Z" fill="#2196F3"/>
<path d="M17.2849 9.70703C16.3303 9.70703 15.5564 10.5119 15.5564 11.5047C15.5575 12.4969 16.3308 13.3011 17.2849 13.3023C18.2395 13.3023 19.0134 12.4974 19.0134 11.5047C19.0134 10.5118 18.2395 9.70703 17.2849 9.70703ZM17.2849 12.5832C16.7121 12.5832 16.2478 12.1003 16.2478 11.5047C16.2478 10.909 16.7121 10.4261 17.2849 10.4261C17.8577 10.4261 18.322 10.909 18.322 11.5047C18.322 12.1003 17.8577 12.5832 17.2849 12.5832Z" fill="#2196F3"/>
<path d="M8.98825 10.7856C8.03365 10.7856 7.25977 11.5905 7.25977 12.5833C7.26089 13.5756 8.03413 14.3797 8.98825 14.3809C9.94285 14.3809 10.7167 13.576 10.7167 12.5833C10.7167 11.5904 9.94285 10.7856 8.98825 10.7856ZM8.98825 13.6618C8.41547 13.6618 7.95116 13.179 7.95116 12.5833C7.95116 11.9876 8.41547 11.5047 8.98825 11.5047C9.56102 11.5047 10.0253 11.9876 10.0253 12.5833C10.0253 13.179 9.56102 13.6618 8.98825 13.6618Z" fill="#2196F3"/>
</svg>
