<svg width="35" height="34" viewBox="0 0 35 34" fill="none" xmlns="http://www.w3.org/2000/svg">
<path d="M28.7883 33.1242H5.81172C4.09767 33.1242 2.70312 31.7297 2.70312 30.0156V13.6604C2.70312 13.0632 3.18719 12.5791 3.78437 12.5791C4.38156 12.5791 4.86562 13.0632 4.86562 13.6604V30.0156C4.86562 30.5373 5.29001 30.9617 5.81172 30.9617H28.7883C29.31 30.9617 29.7344 30.5373 29.7344 30.0156V13.6604C29.7344 13.0632 30.2184 12.5791 30.8156 12.5791C31.4128 12.5791 31.8969 13.0632 31.8969 13.6604V30.0156C31.8969 31.7297 30.5024 33.1242 28.7883 33.1242Z" fill="#525252"/>
<path d="M33.5187 17.4444C33.242 17.4444 32.9653 17.3388 32.7542 17.1276L19.3069 3.68045C18.2003 2.57379 16.3997 2.57379 15.293 3.68045L1.84581 17.1277C1.42358 17.55 0.73895 17.55 0.316722 17.1277C-0.105574 16.7055 -0.105574 16.0208 0.316722 15.5986L13.764 2.15129C15.7137 0.201524 18.8863 0.201524 20.836 2.15129L34.2832 15.5985C34.7055 16.0208 34.7055 16.7054 34.2832 17.1276C34.0722 17.3388 33.7955 17.4444 33.5187 17.4444Z" fill="#525252"/>
<path d="M21.625 33.1241H12.975C12.3779 33.1241 11.8938 32.64 11.8938 32.0429V22.4468C11.8938 20.5836 13.4096 19.0679 15.2727 19.0679H19.3274C21.1905 19.0679 22.7063 20.5836 22.7063 22.4468V32.0429C22.7063 32.64 22.2222 33.1241 21.625 33.1241ZM14.0563 30.9616H20.5438V22.4468C20.5438 21.7761 19.9981 21.2304 19.3274 21.2304H15.2727C14.602 21.2304 14.0563 21.7761 14.0563 22.4468V30.9616Z" fill="#525252"/>
</svg>
