<svg width="28" height="28" viewBox="0 0 28 28" fill="none" xmlns="http://www.w3.org/2000/svg">
<path d="M24.5117 1.32554L14.0465 1.32554C13.9558 1.32554 13.8837 1.25351 13.8837 1.16278C13.8837 1.07205 13.9558 1.00001 14.0465 1.00001L24.5117 1.00001C25.8826 1.00001 27 2.1174 27 3.48836L27 24.4186C27 25.7896 25.8826 26.907 24.5116 26.907L14.0465 26.907C13.9559 26.907 13.8837 26.835 13.8837 26.7441C13.8837 26.6534 13.9558 26.5813 14.0465 26.5813L24.5116 26.5813C25.7057 26.5813 26.6744 25.6128 26.6744 24.4186L26.6744 3.48831C26.6744 2.29424 25.7058 1.32554 24.5117 1.32554Z" fill="#525252" stroke="#525252" stroke-width="2"/>
<path d="M8.11961 21.0474L8.11855 21.0464L1.04978 14.0706C1.0161 14.0373 0.999858 13.9961 0.999858 13.9536C0.999858 13.9116 1.01677 13.8692 1.04953 13.8367C1.04958 13.8366 1.04963 13.8366 1.04967 13.8365L8.11855 6.86068L8.11962 6.85962C8.14968 6.82986 8.18859 6.814 8.2324 6.814C8.27366 6.814 8.31475 6.82925 8.34864 6.86301C8.41198 6.92828 8.40958 7.03054 8.34698 7.09219L8.34625 7.09292L3.29394 12.0789L1.55943 13.7907L3.99637 13.7907L17.5347 13.7907C17.6254 13.7907 17.6975 13.8627 17.6975 13.9535C17.6975 14.0443 17.6255 14.1163 17.5347 14.1163L3.99637 14.1163L1.55943 14.1163L3.29394 15.828L8.34624 20.8141L8.34702 20.8148C8.41105 20.8779 8.41175 20.9801 8.34871 21.0439C8.28379 21.1097 8.18042 21.1076 8.11961 21.0474Z" fill="#525252" stroke="#525252" stroke-width="2"/>
</svg>
