<svg width="29" height="29" viewBox="0 0 29 29" fill="none" xmlns="http://www.w3.org/2000/svg">
<path d="M14.59 8.40442C11.2793 8.40442 8.58594 11.0979 8.58594 14.4085C8.58594 17.7191 11.2794 20.4126 14.59 20.4126C17.9006 20.4126 20.5941 17.7191 20.5941 14.4085C20.5941 11.0979 17.9007 8.40442 14.59 8.40442ZM14.59 18.011C12.6039 18.011 10.9875 16.3946 10.9875 14.4085C10.9875 12.4223 12.6039 10.806 14.59 10.806C16.5773 10.806 18.1925 12.4223 18.1925 14.4085C18.1925 16.3946 16.5762 18.011 14.59 18.011Z" fill="#525252"/>
<path d="M27.9696 10.8205L24.5557 10.2705L26.5971 7.55669C26.9549 7.07996 26.9105 6.41474 26.4926 5.99085L23.0811 2.5313C22.6584 2.10138 21.986 2.05214 21.5068 2.41241L18.7173 4.37217L18.177 1.0099C18.0833 0.4275 17.5813 0 16.9917 0H12.1885C11.5905 0 11.0837 0.439484 10.9997 1.03032L10.4377 4.43344L7.66265 2.40397C7.1835 2.05333 6.52431 2.10374 6.10519 2.52286L2.70691 5.90915C2.28183 6.33181 2.23496 7.0031 2.59523 7.4822L4.58497 10.2669L1.2227 10.7472C0.631867 10.8313 0.192383 11.3381 0.192383 11.9361V16.7393C0.192383 17.3373 0.631867 17.8441 1.2227 17.9257L4.63662 18.4757L2.59523 21.1895C2.23496 21.6687 2.28183 22.3375 2.70573 22.7614L6.10401 26.1597C6.52791 26.5859 7.19796 26.6292 7.67588 26.2701L10.4593 24.2804L10.9397 27.6426C11.0237 28.2334 11.5305 28.673 12.1285 28.673H16.9318C17.5297 28.673 18.0365 28.2347 18.1206 27.6462L18.6706 24.2323L21.3844 26.2737C21.8647 26.634 22.5335 26.5884 22.9563 26.1633L26.3545 22.765C26.7784 22.3411 26.8252 21.671 26.465 21.1931L24.444 18.4133L27.9384 18.005C28.5436 17.9353 28.9999 17.4226 28.9999 16.8126V12.0093C28.9999 11.4113 28.5604 10.9046 27.9696 10.8205ZM26.5995 15.7427L24.1487 16.0284C23.2565 16.1449 22.5108 16.7429 22.2334 17.5138C21.8851 18.3015 21.9872 19.2226 22.506 19.9227L23.9205 21.802L21.9968 23.7257L20.1091 22.3051C19.4139 21.7912 18.4928 21.689 17.7832 22.0097C16.9378 22.3159 16.3398 23.0616 16.2233 23.9406L15.8919 26.2714H13.1708L12.8382 23.955C12.7217 23.0628 12.1237 22.3171 11.354 22.0409C10.5674 21.6927 9.6488 21.7924 8.94392 22.3123L7.06462 23.7268L5.14092 21.8032L6.5615 19.9155C7.07424 19.2226 7.1763 18.3028 6.85689 17.5895C6.54946 16.7441 5.80496 16.1449 4.92475 16.0296L2.59399 15.6982V12.9771L4.91153 12.6445C5.80372 12.528 6.54946 11.93 6.82566 11.1603C7.17512 10.3726 7.073 9.45394 6.55548 8.75024L5.14211 6.87218L7.07182 4.94848L9.01351 6.36788C9.7076 6.8818 10.6262 6.98032 11.3395 6.66327C12.1861 6.35583 12.7829 5.60774 12.897 4.73237L13.2296 2.40037H15.9687L16.3409 4.71555C16.4562 5.60898 17.053 6.35583 17.8263 6.63446C18.6128 6.98032 19.5327 6.8818 20.2315 6.36427L22.1072 4.96171L24.0585 6.93823L22.6332 8.83193C22.1204 9.52483 22.0184 10.4447 22.3378 11.1591C22.6452 12.0057 23.3933 12.6025 24.2687 12.7166L26.5995 13.0492V15.7427H26.5995Z" fill="#525252"/>
</svg>
