<svg width="28" height="27" viewBox="0 0 28 27" fill="none" xmlns="http://www.w3.org/2000/svg">
<path d="M26.7108 0.533447H1.16136C0.51995 0.533447 0 1.0534 0 1.69474C0 2.33609 0.51995 2.85611 1.16136 2.85611H26.7109C27.3523 2.85611 27.8723 2.33616 27.8723 1.69474C27.8723 1.05333 27.3522 0.533447 26.7108 0.533447Z" fill="#525252"/>
<path d="M26.7108 12.1469H1.16136C0.51995 12.1469 0 12.6668 0 13.3082C0 13.9496 0.51995 14.4696 1.16136 14.4696H26.7109C27.3523 14.4696 27.8723 13.9496 27.8723 13.3082C27.8723 12.6668 27.3522 12.1469 26.7108 12.1469Z" fill="#525252"/>
<path d="M26.7108 23.7603H1.16136C0.51995 23.7603 0 24.2802 0 24.9216C0 25.563 0.51995 26.083 1.16136 26.083H26.7109C27.3523 26.083 27.8723 25.563 27.8723 24.9216C27.8723 24.2802 27.3522 23.7603 26.7108 23.7603Z" fill="#525252"/>
</svg>
