<svg width="19" height="20" viewBox="0 0 19 20" fill="none" xmlns="http://www.w3.org/2000/svg">
<path d="M18.3938 14.5651C17.8202 13.9785 16.9686 13.7991 16.2228 14.0687L14.123 11.969C14.2466 11.0569 13.9687 10.1293 13.3143 9.47374L13.1634 9.32173C13.7181 7.2778 13.1468 5.11393 11.629 3.59494L9.12785 1.09497C9.12191 1.08903 9.11954 1.0819 9.1136 1.07597C7.69912 -0.337322 4.75022 0.401388 2.39632 2.75647C0.0412409 5.11037 -0.696281 8.06046 0.715819 9.47374C0.724132 9.48206 0.733633 9.48681 0.741947 9.49512L3.23598 11.9892C4.72884 13.4832 6.96516 14.0746 8.96396 13.5248L9.1136 13.6744C9.67297 14.2338 10.4343 14.5378 11.2074 14.5378C11.3428 14.5378 11.4758 14.5034 11.61 14.4844L13.7086 16.5829C13.439 17.3264 13.6159 18.1791 14.1955 18.7444C14.5839 19.1411 15.1064 19.3596 15.6646 19.3596C16.2228 19.3596 16.7454 19.1411 17.1183 18.7599C17.3427 18.5461 17.5149 18.2789 17.623 17.9844C17.9175 17.8787 18.1812 17.7088 18.3843 17.495C18.781 17.1067 18.9995 16.5841 18.9995 16.0247C18.9995 15.4654 18.781 14.944 18.3938 14.5651ZM1.57092 8.64359L1.55667 8.63052C1.55548 8.62934 1.55192 8.62815 1.54954 8.62577C0.7657 7.82531 1.26213 5.56998 3.23598 3.59613C4.61958 2.21253 6.14213 1.55458 7.20507 1.55458C7.65874 1.55458 8.0281 1.67691 8.26681 1.91087C8.268 1.91325 8.26919 1.91562 8.27038 1.91681L8.28344 1.92988C9.06015 2.73628 8.56372 4.98567 6.59462 6.95477C4.62552 8.92387 2.37732 9.42268 1.57092 8.64359ZM11.6741 13.2884C11.0566 13.4523 10.3974 13.2789 9.95326 12.8348L9.54946 12.431C9.38794 12.2706 9.14804 12.216 8.93427 12.2896C7.28345 12.8668 5.34166 12.4155 4.07564 11.1483L3.08397 10.1578C4.44975 10.0034 6.04474 9.18396 7.43428 7.79443C8.82856 6.40014 9.63735 4.80396 9.78818 3.43461L10.7894 4.43579C12.0756 5.722 12.5114 7.5854 11.9295 9.30035C11.857 9.51412 11.9117 9.75046 12.072 9.9108L12.4758 10.3146C12.92 10.7588 13.0934 11.4179 12.9247 12.0474C12.8523 12.3455 12.7014 12.6115 12.4758 12.8371C12.2513 13.0616 11.9853 13.2124 11.6741 13.2884ZM17.5387 16.6613C17.414 16.7931 17.2394 16.8822 17.0482 16.9107C16.7917 16.9499 16.591 17.1506 16.5518 17.4072C16.5221 17.5984 16.433 17.773 16.2857 17.9131C15.9603 18.2456 15.3808 18.2563 15.0352 17.9036C14.7359 17.6102 14.6884 17.1447 14.9223 16.7955C15.0815 16.5604 15.0506 16.2445 14.8499 16.0438L12.8416 14.0355C13.0067 13.9274 13.1729 13.8169 13.3143 13.6744C13.458 13.5319 13.5672 13.3656 13.6765 13.2005L15.6848 15.2088C15.8855 15.4096 16.2002 15.4404 16.4366 15.2813C16.7845 15.0473 17.2513 15.0936 17.5541 15.4036C17.7204 15.5675 17.8118 15.7884 17.8118 16.0247C17.8118 16.2611 17.7204 16.4832 17.5387 16.6613Z" fill="#BF6477"/>
<path d="M5.75389 4.4359C5.5223 4.20431 5.14582 4.20431 4.91423 4.4359L4.07457 5.27556C3.84298 5.50715 3.84298 5.88363 4.07457 6.11522C4.18977 6.23042 4.34179 6.28861 4.49381 6.28861C4.64582 6.28861 4.79784 6.23042 4.91423 6.11522L5.75389 5.27556C5.98548 5.04397 5.98548 4.66749 5.75389 4.4359Z" fill="#BF6477"/>
</svg>
