<svg width="37" height="32" viewBox="0 0 37 32" fill="none" xmlns="http://www.w3.org/2000/svg">
<path d="M18.9463 11.5055C16.9036 11.5055 15.2476 13.108 15.2476 15.085C15.2476 17.0618 16.9035 18.6644 18.9463 18.6644C20.989 18.6644 22.6451 17.0619 22.6451 15.085C22.6451 13.108 20.9891 11.5055 18.9463 11.5055ZM18.9463 16.9598C17.8763 16.9598 17.0089 16.1204 17.0089 15.0849C17.0089 14.0493 17.8763 13.2099 18.9463 13.2099C20.0164 13.2099 20.8838 14.0493 20.8838 15.0849C20.8838 16.1204 20.0164 16.9598 18.9463 16.9598Z" fill="#525252"/>
<path d="M33.6974 3.32387L9.65548 0.681978C8.7224 0.553599 7.77701 0.817209 7.05759 1.40642C6.33824 1.9462 5.87714 2.74633 5.78064 3.62223L5.34035 7.11645H3.97524C2.03778 7.11645 0.584686 8.77829 0.584686 10.6533V28.0816C0.535887 29.8696 1.99404 31.3574 3.84166 31.4046C3.88616 31.4057 3.93074 31.406 3.97524 31.4054H28.1492C30.0867 31.4054 31.848 29.9566 31.848 28.0816V27.3999C32.4486 27.2875 33.0185 27.0553 33.5212 26.7181C34.2346 26.1368 34.6915 25.3136 34.7982 24.417L36.8237 7.11645C37.0302 5.23717 35.6366 3.54662 33.6974 3.32387ZM30.0867 28.0816C30.0867 29.0191 29.1179 29.7009 28.1492 29.7009H3.97524C3.10015 29.7258 2.36994 29.0594 2.34423 28.2125C2.34288 28.1689 2.34347 28.1253 2.346 28.0816V24.9283L9.17111 20.0706C9.991 19.4614 11.1458 19.5155 11.9012 20.1984L16.7007 24.2891C17.4296 24.8814 18.3471 25.2124 19.2987 25.2266C20.0427 25.2354 20.7746 25.0437 21.4123 24.6726L30.0867 19.8149L30.0867 28.0816ZM30.0867 17.8121L20.4875 23.2239C19.6632 23.6964 18.6199 23.6109 17.8895 23.0108L13.046 18.8774C11.6578 17.723 9.62876 17.6522 8.1583 18.7069L2.346 22.7977V10.6533C2.346 9.71577 3.00651 8.82095 3.97524 8.82095H28.1492C29.1842 8.86246 30.02 9.65297 30.0867 10.6533V17.8121ZM35.0641 6.88637C35.0635 6.89199 35.063 6.8977 35.0623 6.90333L32.9928 24.2039C32.9963 24.6525 32.7849 25.0774 32.4203 25.3544C32.2442 25.5249 31.8479 25.6101 31.8479 25.6954V10.6533C31.7784 8.71198 30.1558 7.16042 28.1491 7.11645H7.10158L7.49787 3.7927C7.58384 3.36229 7.81637 2.97226 8.15839 2.68475C8.54456 2.42636 9.01148 2.30589 9.47941 2.34382L33.4773 5.02837C34.4455 5.11735 35.156 5.94921 35.0641 6.88637Z" fill="#525252"/>
</svg>
