<svg width="22" height="24" viewBox="0 0 22 24" fill="none" xmlns="http://www.w3.org/2000/svg">
<path d="M12.0668 4.99794C11.1366 5.1368 10.3208 5.64899 9.8266 6.40497L2.53318 17.7308C1.93115 18.6519 2.14732 19.9469 3.02563 20.6794C3.91476 21.4208 5.2764 21.4179 6.06035 20.6735L15.8481 11.423C16.1803 11.104 16.4414 10.7183 16.6141 10.2913C16.7869 9.86428 16.8674 9.40558 16.8504 8.94527C16.8342 8.38461 16.668 7.83856 16.3691 7.36391L18.7956 6.86974C19.0954 6.80702 19.3636 6.64085 19.5533 6.40031C19.7429 6.15977 19.8419 5.86019 19.833 5.55401L19.831 5.50607C19.8265 5.3384 19.7843 5.17389 19.7075 5.02479C19.6306 4.87569 19.5212 4.74582 19.3873 4.64485C19.2494 4.54407 19.0905 4.47568 18.9225 4.44478C18.7545 4.41387 18.5817 4.42123 18.417 4.46632L17.9897 4.58157L18.2789 4.23471C18.7177 3.70848 18.6675 2.94074 18.1669 2.52332C17.6664 2.1059 16.9021 2.19438 16.4633 2.72061L16.174 3.06747L16.2107 2.62231C16.225 2.4528 16.2009 2.28226 16.1403 2.12333C16.0796 1.9644 15.984 1.82115 15.8605 1.70419C15.7373 1.59073 15.5901 1.50647 15.4298 1.45766C15.2696 1.40886 15.1004 1.39677 14.9348 1.42228L14.8846 1.42934C14.5822 1.47571 14.3056 1.62694 14.1033 1.85658C13.9011 2.08623 13.786 2.37966 13.7781 2.68558L13.7276 5.17867C13.1993 4.97436 12.6267 4.91205 12.0668 4.99794ZM14.566 2.70093C14.5712 2.58239 14.6165 2.46914 14.6946 2.3798C14.7727 2.29045 14.8788 2.23033 14.9956 2.20931L15.0454 2.20232C15.0947 2.19352 15.1453 2.19601 15.1934 2.20958C15.2416 2.22315 15.286 2.24746 15.3235 2.28069C15.3604 2.31683 15.3888 2.36087 15.4064 2.40951C15.424 2.45815 15.4304 2.51014 15.4251 2.56159L15.2861 4.24395C15.2792 4.32743 15.299 4.41094 15.3428 4.48237C15.3865 4.5538 15.4519 4.60943 15.5294 4.64118C15.6069 4.67293 15.6926 4.67915 15.7738 4.65894C15.8551 4.63873 15.9279 4.59313 15.9815 4.52878L17.0685 3.22531C17.2236 3.03932 17.501 2.99409 17.6622 3.12853C17.8235 3.26297 17.8288 3.54402 17.6737 3.73001L16.5867 5.03348C16.5331 5.09779 16.5013 5.17751 16.4961 5.26108C16.4908 5.34465 16.5123 5.42772 16.5575 5.49824C16.6026 5.56877 16.669 5.62307 16.7471 5.65329C16.8252 5.6835 16.9109 5.68805 16.9918 5.66628L18.6175 5.22837C18.6677 5.21328 18.7206 5.2098 18.7724 5.21819C18.8242 5.22658 18.8733 5.24661 18.9162 5.27678C18.9557 5.30777 18.9877 5.34732 19.0097 5.39246C19.0317 5.4376 19.0432 5.48714 19.0433 5.53736L19.0453 5.58488C19.0458 5.70385 19.0059 5.81947 18.9319 5.91266C18.8579 6.00585 18.7544 6.07105 18.6384 6.09751L15.7708 6.68164C15.7708 6.68164 14.5197 5.6398 14.5065 5.62918L14.566 2.70093ZM14.0414 6.26559L15.2724 7.29212C15.7603 7.69903 16.041 8.29513 16.0626 8.9708C16.0761 9.31982 16.0156 9.66775 15.8852 9.99179C15.7549 10.3158 15.5575 10.6086 15.306 10.8511L13.5417 12.5185L11.3535 10.6937C11.2732 10.6267 11.1697 10.5944 11.0656 10.6038C10.9615 10.6133 10.8655 10.6637 10.7985 10.7439C10.7316 10.8242 10.6993 10.9277 10.7087 11.0318C10.7182 11.1359 10.7685 11.2319 10.8488 11.2989L12.9649 13.0636L9.50432 16.3342L7.82059 14.9301C7.74033 14.8632 7.63678 14.8309 7.5327 14.8403C7.42863 14.8497 7.33256 14.9001 7.26563 14.9804C7.19871 15.0606 7.1664 15.1642 7.17582 15.2683C7.18525 15.3723 7.23563 15.4684 7.31589 15.5353L8.92756 16.8793L5.51838 20.1014C5.02282 20.572 4.11239 20.5596 3.53033 20.0742C2.96386 19.6018 2.81239 18.744 3.19422 18.1597L4.22932 16.5527L5.85204 17.9059C5.9323 17.9728 6.03585 18.0052 6.13993 17.9957C6.244 17.9863 6.34007 17.9359 6.407 17.8557C6.47392 17.7754 6.50623 17.6719 6.4968 17.5678C6.48738 17.4637 6.437 17.3676 6.35674 17.3007L4.65909 15.885L7.23849 11.8795L9.38494 13.6694C9.4652 13.7364 9.56875 13.7687 9.67283 13.7593C9.7769 13.7498 9.87297 13.6994 9.9399 13.6192C10.0068 13.5389 10.0391 13.4354 10.0297 13.3313C10.0203 13.2272 9.9699 13.1312 9.88964 13.0642L7.66841 11.2119L10.2478 7.20637L12.3126 8.92828C12.3929 8.9952 12.4964 9.02751 12.6005 9.01809C12.7046 9.00866 12.8007 8.95828 12.8676 8.87802C12.9345 8.79777 12.9668 8.69421 12.9574 8.59014C12.948 8.48606 12.8976 8.38999 12.8173 8.32307L10.7009 6.55813C11.0897 6.13399 11.6137 5.858 12.1833 5.77731C12.8692 5.67478 13.5464 5.85278 14.0414 6.26559Z" fill="#35BE53"/>
</svg>
