<svg width="28" height="33" viewBox="0 0 28 33" fill="none" xmlns="http://www.w3.org/2000/svg">
<path d="M5.18644 12.3203C2.87288 12.3203 1 14.1932 1 16.5068C1 18.8203 2.87288 20.6932 5.18644 20.6932C7.5 20.6932 9.37288 18.8203 9.37288 16.5068C9.36554 14.2005 7.49266 12.3277 5.18644 12.3203ZM5.18644 19.2243C3.68814 19.2243 2.46893 18.0124 2.46893 16.5068C2.46893 15.0084 3.68079 13.7892 5.18644 13.7892C6.68475 13.7892 7.90396 15.0011 7.90396 16.5068C7.89661 18.0051 6.68475 19.2169 5.18644 19.2243Z" fill="#525252" stroke="#525252" stroke-width="0.5"/>
<path d="M26.2655 13.4954H11.3192C10.9152 13.4954 10.5847 13.8259 10.5847 14.2298C10.5847 14.6338 10.9152 14.9643 11.3192 14.9643H26.2655C26.6695 14.9643 27 14.6338 27 14.2298C27 13.8259 26.6695 13.4954 26.2655 13.4954Z" fill="#525252" stroke="#525252" stroke-width="0.5"/>
<path d="M19.3689 18.0491H11.3192C10.9152 18.0491 10.5847 18.3796 10.5847 18.7835C10.5847 19.1875 10.9079 19.518 11.3192 19.518H19.3689C19.7729 19.518 20.1034 19.1875 20.1034 18.7835C20.1034 18.3796 19.7729 18.0491 19.3689 18.0491Z" fill="#525252" stroke="#525252" stroke-width="0.5"/>
<path d="M5.18644 0.825928C2.87288 0.825928 1 2.69881 1 5.01237C1 7.32593 2.87288 9.19881 5.18644 9.19881C7.5 9.19881 9.37288 7.32593 9.37288 5.01237C9.36554 2.69881 7.49266 0.825928 5.18644 0.825928ZM5.18644 7.72254C3.68814 7.72254 2.46893 6.51067 2.46893 5.00502C2.46893 3.49937 3.68079 2.28751 5.18644 2.28751C6.68475 2.28751 7.90396 3.49937 7.90396 5.00502C7.89661 6.51067 6.68475 7.72254 5.18644 7.72254Z" fill="#525252" stroke="#525252" stroke-width="0.5"/>
<path d="M26.2655 1.96436H11.3192C10.9152 1.96436 10.5847 2.29486 10.5847 2.69882C10.5847 3.10277 10.9152 3.43328 11.3192 3.43328H26.2655C26.6695 3.43328 27 3.10277 27 2.69882C27 2.29486 26.6695 1.96436 26.2655 1.96436Z" fill="#525252" stroke="#525252" stroke-width="0.5"/>
<path d="M19.3689 6.59143H11.3192C10.9152 6.59143 10.5847 6.92194 10.5847 7.32589C10.5847 7.72985 10.9079 8.06036 11.3192 8.06036H19.3689C19.7729 8.06036 20.1034 7.72985 20.1034 7.32589C20.1034 6.92194 19.7729 6.59143 19.3689 6.59143Z" fill="#525252" stroke="#525252" stroke-width="0.5"/>
<path d="M5.18644 23.822C2.87288 23.822 1 25.6949 1 28.0085C1 30.322 2.87288 32.1949 5.18644 32.1949C7.5 32.1949 9.37288 30.322 9.37288 28.0085C9.36554 25.6949 7.49266 23.822 5.18644 23.822ZM5.18644 30.7186C3.68814 30.7186 2.46893 29.5068 2.46893 28.0011C2.46893 26.5028 3.68079 25.2836 5.18644 25.2836C6.68475 25.2836 7.90396 26.4955 7.90396 28.0011C7.89661 29.5068 6.68475 30.7186 5.18644 30.7186Z" fill="#525252" stroke="#525252" stroke-width="0.5"/>
<path d="M26.2655 24.953H11.3192C10.9152 24.953 10.5847 25.2835 10.5847 25.6875C10.5847 26.0914 10.9152 26.4219 11.3192 26.4219H26.2655C26.6695 26.4219 27 26.0914 27 25.6875C27 25.2835 26.6695 24.953 26.2655 24.953Z" fill="#525252" stroke="#525252" stroke-width="0.5"/>
<path d="M19.3689 29.5802H11.3192C10.9152 29.5802 10.5847 29.9107 10.5847 30.3147C10.5847 30.7186 10.9152 31.0491 11.3192 31.0491H19.3689C19.7729 31.0491 20.1034 30.7186 20.1034 30.3147C20.1034 29.9107 19.7729 29.5802 19.3689 29.5802Z" fill="#525252" stroke="#525252" stroke-width="0.5"/>
</svg>
